<mxfile host="65bd71144e">
    <diagram name="Page-1" id="eWeCTWKHeOMACyGkaK-u">
        <mxGraphModel dx="647" dy="933" grid="1" gridSize="10" guides="1" tooltips="1" connect="1" arrows="1" fold="1" page="1" pageScale="1" pageWidth="850" pageHeight="1100" math="0" shadow="0">
            <root>
                <mxCell id="0"/>
                <mxCell id="1" parent="0"/>
                <mxCell id="FgAzM4NA1Sz2FXUt2BVG-1" value="TM_orarend" style="ellipse;whiteSpace=wrap;html=1;" parent="1" vertex="1">
                    <mxGeometry x="530" y="100" width="120" height="80" as="geometry"/>
                </mxCell>
                <mxCell id="FgAzM4NA1Sz2FXUt2BVG-3" value="&lt;u&gt;&lt;b&gt;&lt;font style=&quot;font-size: 15px;&quot;&gt;id&lt;/font&gt;&lt;/b&gt;&lt;/u&gt;" style="rhombus;whiteSpace=wrap;html=1;" parent="1" vertex="1">
                    <mxGeometry x="425" y="210" width="80" height="80" as="geometry"/>
                </mxCell>
                <mxCell id="FgAzM4NA1Sz2FXUt2BVG-4" value="elmelet" style="rhombus;whiteSpace=wrap;html=1;" parent="1" vertex="1">
                    <mxGeometry x="675" y="210" width="80" height="80" as="geometry"/>
                </mxCell>
                <mxCell id="FgAzM4NA1Sz2FXUt2BVG-5" value="idopont" style="ellipse;whiteSpace=wrap;html=1;" parent="1" vertex="1">
                    <mxGeometry x="390" y="320" width="120" height="80" as="geometry"/>
                </mxCell>
                <mxCell id="FgAzM4NA1Sz2FXUt2BVG-7" value="idopont" style="ellipse;whiteSpace=wrap;html=1;" parent="1" vertex="1">
                    <mxGeometry x="400" y="330" width="100" height="60" as="geometry"/>
                </mxCell>
                <mxCell id="FgAzM4NA1Sz2FXUt2BVG-8" value="helyszin" style="ellipse;whiteSpace=wrap;html=1;" parent="1" vertex="1">
                    <mxGeometry x="530" y="320" width="120" height="80" as="geometry"/>
                </mxCell>
                <mxCell id="FgAzM4NA1Sz2FXUt2BVG-9" value="oktato" style="ellipse;whiteSpace=wrap;html=1;" parent="1" vertex="1">
                    <mxGeometry x="670" y="320" width="120" height="80" as="geometry"/>
                </mxCell>
                <mxCell id="FgAzM4NA1Sz2FXUt2BVG-10" value="szak" style="ellipse;whiteSpace=wrap;html=1;" parent="1" vertex="1">
                    <mxGeometry x="810" y="320" width="120" height="80" as="geometry"/>
                </mxCell>
                <mxCell id="FgAzM4NA1Sz2FXUt2BVG-11" value="targy" style="ellipse;whiteSpace=wrap;html=1;" parent="1" vertex="1">
                    <mxGeometry x="250" y="320" width="120" height="80" as="geometry"/>
                </mxCell>
                <mxCell id="FgAzM4NA1Sz2FXUt2BVG-12" value="nap" style="ellipse;whiteSpace=wrap;html=1;" parent="1" vertex="1">
                    <mxGeometry x="250" y="580" width="120" height="80" as="geometry"/>
                </mxCell>
                <mxCell id="FgAzM4NA1Sz2FXUt2BVG-13" value="tol" style="ellipse;whiteSpace=wrap;html=1;" parent="1" vertex="1">
                    <mxGeometry x="390" y="580" width="120" height="80" as="geometry"/>
                </mxCell>
                <mxCell id="FgAzM4NA1Sz2FXUt2BVG-14" value="ig" style="ellipse;whiteSpace=wrap;html=1;" parent="1" vertex="1">
                    <mxGeometry x="530" y="580" width="120" height="80" as="geometry"/>
                </mxCell>
                <mxCell id="FgAzM4NA1Sz2FXUt2BVG-15" value="" style="rounded=0;whiteSpace=wrap;html=1;" parent="1" vertex="1">
                    <mxGeometry x="285" y="690" width="50" height="50" as="geometry"/>
                </mxCell>
                <mxCell id="FgAzM4NA1Sz2FXUt2BVG-16" value="" style="rounded=0;whiteSpace=wrap;html=1;" parent="1" vertex="1">
                    <mxGeometry x="425" y="690" width="50" height="50" as="geometry"/>
                </mxCell>
                <mxCell id="FgAzM4NA1Sz2FXUt2BVG-17" value="" style="rounded=0;whiteSpace=wrap;html=1;" parent="1" vertex="1">
                    <mxGeometry x="565" y="690" width="50" height="50" as="geometry"/>
                </mxCell>
                <mxCell id="FgAzM4NA1Sz2FXUt2BVG-18" value="" style="rounded=0;whiteSpace=wrap;html=1;" parent="1" vertex="1">
                    <mxGeometry x="565" y="430" width="50" height="50" as="geometry"/>
                </mxCell>
                <mxCell id="FgAzM4NA1Sz2FXUt2BVG-19" value="" style="rounded=0;whiteSpace=wrap;html=1;" parent="1" vertex="1">
                    <mxGeometry x="705" y="430" width="50" height="50" as="geometry"/>
                </mxCell>
                <mxCell id="FgAzM4NA1Sz2FXUt2BVG-20" value="" style="rounded=0;whiteSpace=wrap;html=1;" parent="1" vertex="1">
                    <mxGeometry x="845" y="430" width="50" height="50" as="geometry"/>
                </mxCell>
                <mxCell id="FgAzM4NA1Sz2FXUt2BVG-21" value="" style="rounded=0;whiteSpace=wrap;html=1;" parent="1" vertex="1">
                    <mxGeometry x="285" y="430" width="50" height="50" as="geometry"/>
                </mxCell>
                <mxCell id="FgAzM4NA1Sz2FXUt2BVG-22" value="" style="endArrow=none;html=1;rounded=0;entryX=0.5;entryY=1;entryDx=0;entryDy=0;exitX=0.5;exitY=0;exitDx=0;exitDy=0;" parent="1" source="FgAzM4NA1Sz2FXUt2BVG-27" target="FgAzM4NA1Sz2FXUt2BVG-1" edge="1">
                    <mxGeometry width="50" height="50" relative="1" as="geometry">
                        <mxPoint x="625" y="220" as="sourcePoint"/>
                        <mxPoint x="450" y="360" as="targetPoint"/>
                    </mxGeometry>
                </mxCell>
                <mxCell id="FgAzM4NA1Sz2FXUt2BVG-24" value="" style="endArrow=none;html=1;rounded=0;entryX=0.5;entryY=1;entryDx=0;entryDy=0;" parent="1" source="FgAzM4NA1Sz2FXUt2BVG-8" target="FgAzM4NA1Sz2FXUt2BVG-27" edge="1">
                    <mxGeometry width="50" height="50" relative="1" as="geometry">
                        <mxPoint x="400" y="410" as="sourcePoint"/>
                        <mxPoint x="625" y="290" as="targetPoint"/>
                    </mxGeometry>
                </mxCell>
                <mxCell id="FgAzM4NA1Sz2FXUt2BVG-25" value="" style="endArrow=none;html=1;rounded=0;entryX=0.5;entryY=1;entryDx=0;entryDy=0;exitX=0.5;exitY=0;exitDx=0;exitDy=0;" parent="1" source="FgAzM4NA1Sz2FXUt2BVG-9" target="FgAzM4NA1Sz2FXUt2BVG-27" edge="1">
                    <mxGeometry width="50" height="50" relative="1" as="geometry">
                        <mxPoint x="670" y="362" as="sourcePoint"/>
                        <mxPoint x="667.4264068711927" y="278.2842712474619" as="targetPoint"/>
                    </mxGeometry>
                </mxCell>
                <mxCell id="FgAzM4NA1Sz2FXUt2BVG-26" value="" style="endArrow=none;html=1;rounded=0;exitX=0.5;exitY=0;exitDx=0;exitDy=0;" parent="1" source="FgAzM4NA1Sz2FXUt2BVG-10" edge="1">
                    <mxGeometry width="50" height="50" relative="1" as="geometry">
                        <mxPoint x="759" y="421" as="sourcePoint"/>
                        <mxPoint x="590" y="290" as="targetPoint"/>
                    </mxGeometry>
                </mxCell>
                <mxCell id="FgAzM4NA1Sz2FXUt2BVG-27" value="idopont" style="ellipse;whiteSpace=wrap;html=1;" parent="1" vertex="1">
                    <mxGeometry x="530" y="210" width="120" height="80" as="geometry"/>
                </mxCell>
                <mxCell id="FgAzM4NA1Sz2FXUt2BVG-28" value="idopont" style="ellipse;whiteSpace=wrap;html=1;" parent="1" vertex="1">
                    <mxGeometry x="540" y="220" width="100" height="60" as="geometry"/>
                </mxCell>
                <mxCell id="FgAzM4NA1Sz2FXUt2BVG-29" value="" style="endArrow=none;html=1;rounded=0;entryX=0.5;entryY=1;entryDx=0;entryDy=0;exitX=0.5;exitY=0;exitDx=0;exitDy=0;" parent="1" source="FgAzM4NA1Sz2FXUt2BVG-11" target="FgAzM4NA1Sz2FXUt2BVG-27" edge="1">
                    <mxGeometry width="50" height="50" relative="1" as="geometry">
                        <mxPoint x="1012" y="396" as="sourcePoint"/>
                        <mxPoint x="840" y="310" as="targetPoint"/>
                    </mxGeometry>
                </mxCell>
                <mxCell id="FgAzM4NA1Sz2FXUt2BVG-30" value="" style="endArrow=none;html=1;rounded=0;exitX=1;exitY=0.5;exitDx=0;exitDy=0;entryX=0;entryY=0.5;entryDx=0;entryDy=0;" parent="1" source="FgAzM4NA1Sz2FXUt2BVG-3" edge="1" target="FgAzM4NA1Sz2FXUt2BVG-27">
                    <mxGeometry width="50" height="50" relative="1" as="geometry">
                        <mxPoint x="1008" y="378" as="sourcePoint"/>
                        <mxPoint x="550" y="220" as="targetPoint"/>
                    </mxGeometry>
                </mxCell>
                <mxCell id="FgAzM4NA1Sz2FXUt2BVG-31" value="" style="endArrow=none;html=1;rounded=0;exitX=0;exitY=0.5;exitDx=0;exitDy=0;entryX=1;entryY=0.5;entryDx=0;entryDy=0;" parent="1" source="FgAzM4NA1Sz2FXUt2BVG-4" target="FgAzM4NA1Sz2FXUt2BVG-27" edge="1">
                    <mxGeometry width="50" height="50" relative="1" as="geometry">
                        <mxPoint x="470" y="370" as="sourcePoint"/>
                        <mxPoint x="640" y="230" as="targetPoint"/>
                    </mxGeometry>
                </mxCell>
                <mxCell id="FgAzM4NA1Sz2FXUt2BVG-32" value="" style="endArrow=none;html=1;rounded=0;exitX=0.5;exitY=0;exitDx=0;exitDy=0;entryX=0.5;entryY=1;entryDx=0;entryDy=0;" parent="1" source="FgAzM4NA1Sz2FXUt2BVG-5" target="FgAzM4NA1Sz2FXUt2BVG-27" edge="1">
                    <mxGeometry width="50" height="50" relative="1" as="geometry">
                        <mxPoint x="540" y="380" as="sourcePoint"/>
                        <mxPoint x="745" y="310" as="targetPoint"/>
                    </mxGeometry>
                </mxCell>
                <mxCell id="FgAzM4NA1Sz2FXUt2BVG-36" value="" style="endArrow=none;html=1;rounded=0;entryX=0.5;entryY=1;entryDx=0;entryDy=0;exitX=0.5;exitY=0;exitDx=0;exitDy=0;" parent="1" source="FgAzM4NA1Sz2FXUt2BVG-18" target="FgAzM4NA1Sz2FXUt2BVG-8" edge="1">
                    <mxGeometry width="50" height="50" relative="1" as="geometry">
                        <mxPoint x="620" y="330" as="sourcePoint"/>
                        <mxPoint x="620" y="300" as="targetPoint"/>
                    </mxGeometry>
                </mxCell>
                <mxCell id="FgAzM4NA1Sz2FXUt2BVG-37" value="" style="endArrow=none;html=1;rounded=0;entryX=0.5;entryY=1;entryDx=0;entryDy=0;exitX=0.5;exitY=0;exitDx=0;exitDy=0;" parent="1" source="FgAzM4NA1Sz2FXUt2BVG-19" target="FgAzM4NA1Sz2FXUt2BVG-9" edge="1">
                    <mxGeometry width="50" height="50" relative="1" as="geometry">
                        <mxPoint x="700" y="460" as="sourcePoint"/>
                        <mxPoint x="700" y="430" as="targetPoint"/>
                    </mxGeometry>
                </mxCell>
                <mxCell id="FgAzM4NA1Sz2FXUt2BVG-38" value="" style="endArrow=none;html=1;rounded=0;entryX=0.5;entryY=1;entryDx=0;entryDy=0;exitX=0.5;exitY=0;exitDx=0;exitDy=0;" parent="1" source="FgAzM4NA1Sz2FXUt2BVG-20" target="FgAzM4NA1Sz2FXUt2BVG-10" edge="1">
                    <mxGeometry width="50" height="50" relative="1" as="geometry">
                        <mxPoint x="870" y="420" as="sourcePoint"/>
                        <mxPoint x="820" y="410" as="targetPoint"/>
                    </mxGeometry>
                </mxCell>
                <mxCell id="FgAzM4NA1Sz2FXUt2BVG-39" value="" style="endArrow=none;html=1;rounded=0;entryX=0.5;entryY=1;entryDx=0;entryDy=0;exitX=0.5;exitY=0;exitDx=0;exitDy=0;" parent="1" source="FgAzM4NA1Sz2FXUt2BVG-21" target="FgAzM4NA1Sz2FXUt2BVG-11" edge="1">
                    <mxGeometry width="50" height="50" relative="1" as="geometry">
                        <mxPoint x="910" y="440" as="sourcePoint"/>
                        <mxPoint x="910" y="420" as="targetPoint"/>
                    </mxGeometry>
                </mxCell>
                <mxCell id="FgAzM4NA1Sz2FXUt2BVG-40" value="" style="endArrow=none;html=1;rounded=0;exitX=0.5;exitY=1;exitDx=0;exitDy=0;entryX=0.5;entryY=0;entryDx=0;entryDy=0;" parent="1" source="FgAzM4NA1Sz2FXUt2BVG-5" target="FgAzM4NA1Sz2FXUt2BVG-13" edge="1">
                    <mxGeometry width="50" height="50" relative="1" as="geometry">
                        <mxPoint x="520" y="362" as="sourcePoint"/>
                        <mxPoint x="618" y="320" as="targetPoint"/>
                    </mxGeometry>
                </mxCell>
                <mxCell id="FgAzM4NA1Sz2FXUt2BVG-41" value="" style="endArrow=none;html=1;rounded=0;entryX=0.5;entryY=0;entryDx=0;entryDy=0;exitX=0.5;exitY=1;exitDx=0;exitDy=0;" parent="1" source="FgAzM4NA1Sz2FXUt2BVG-5" target="FgAzM4NA1Sz2FXUt2BVG-14" edge="1">
                    <mxGeometry width="50" height="50" relative="1" as="geometry">
                        <mxPoint x="450" y="410" as="sourcePoint"/>
                        <mxPoint x="500" y="650" as="targetPoint"/>
                    </mxGeometry>
                </mxCell>
                <mxCell id="FgAzM4NA1Sz2FXUt2BVG-42" value="" style="endArrow=none;html=1;rounded=0;entryX=0.5;entryY=0;entryDx=0;entryDy=0;" parent="1" target="FgAzM4NA1Sz2FXUt2BVG-12" edge="1">
                    <mxGeometry width="50" height="50" relative="1" as="geometry">
                        <mxPoint x="450" y="400" as="sourcePoint"/>
                        <mxPoint x="638" y="512" as="targetPoint"/>
                    </mxGeometry>
                </mxCell>
                <mxCell id="FgAzM4NA1Sz2FXUt2BVG-43" value="" style="endArrow=none;html=1;rounded=0;entryX=0.5;entryY=1;entryDx=0;entryDy=0;exitX=0.5;exitY=0;exitDx=0;exitDy=0;" parent="1" source="FgAzM4NA1Sz2FXUt2BVG-15" target="FgAzM4NA1Sz2FXUt2BVG-12" edge="1">
                    <mxGeometry width="50" height="50" relative="1" as="geometry">
                        <mxPoint x="670" y="440" as="sourcePoint"/>
                        <mxPoint x="670" y="410" as="targetPoint"/>
                    </mxGeometry>
                </mxCell>
                <mxCell id="FgAzM4NA1Sz2FXUt2BVG-44" value="" style="endArrow=none;html=1;rounded=0;entryX=0.5;entryY=1;entryDx=0;entryDy=0;exitX=0.5;exitY=0;exitDx=0;exitDy=0;" parent="1" source="FgAzM4NA1Sz2FXUt2BVG-16" target="FgAzM4NA1Sz2FXUt2BVG-13" edge="1">
                    <mxGeometry width="50" height="50" relative="1" as="geometry">
                        <mxPoint x="540" y="630" as="sourcePoint"/>
                        <mxPoint x="540" y="600" as="targetPoint"/>
                    </mxGeometry>
                </mxCell>
                <mxCell id="FgAzM4NA1Sz2FXUt2BVG-45" value="" style="endArrow=none;html=1;rounded=0;entryX=0.5;entryY=1;entryDx=0;entryDy=0;exitX=0.5;exitY=0;exitDx=0;exitDy=0;" parent="1" source="FgAzM4NA1Sz2FXUt2BVG-17" target="FgAzM4NA1Sz2FXUt2BVG-14" edge="1">
                    <mxGeometry width="50" height="50" relative="1" as="geometry">
                        <mxPoint x="520" y="650" as="sourcePoint"/>
                        <mxPoint x="520" y="620" as="targetPoint"/>
                    </mxGeometry>
                </mxCell>
            </root>
        </mxGraphModel>
    </diagram>
</mxfile>